<?xml version="1.0" encoding="UTF-8"?>
<!DOCTYPE svg PUBLIC "-//W3C//DTD SVG 1.1//EN" "http://www.w3.org/Graphics/SVG/1.1/DTD/svg11.dtd">
<svg xmlns="http://www.w3.org/2000/svg" version="1.1" width="30px" height="30px" style="shape-rendering:geometricPrecision; text-rendering:geometricPrecision; image-rendering:optimizeQuality; fill-rule:evenodd; clip-rule:evenodd" xmlns:xlink="http://www.w3.org/1999/xlink">
<g><path style="opacity:0.958" fill="#000000" d="M 12.5,2.5 C 13.8333,2.5 15.1667,2.5 16.5,2.5C 16.5,5.83333 16.5,9.16667 16.5,12.5C 19.8333,12.5 23.1667,12.5 26.5,12.5C 26.5,13.8333 26.5,15.1667 26.5,16.5C 23.1667,16.5 19.8333,16.5 16.5,16.5C 16.5,19.8333 16.5,23.1667 16.5,26.5C 15.1667,26.5 13.8333,26.5 12.5,26.5C 12.5,23.1667 12.5,19.8333 12.5,16.5C 9.16667,16.5 5.83333,16.5 2.5,16.5C 2.5,15.1667 2.5,13.8333 2.5,12.5C 5.83333,12.5 9.16667,12.5 12.5,12.5C 12.5,9.16667 12.5,5.83333 12.5,2.5 Z"/></g>
</svg>
